<svg width="238" height="172" viewBox="0 0 238 172" fill="none" xmlns="http://www.w3.org/2000/svg">
<g clip-path="url(#clip0_245:14)">
<path d="M203.774 85.9506C203.774 133.004 165.678 171.105 118.653 171.105C71.6286 171.105 33.5327 133.004 33.5327 85.9506C33.5327 38.8968 71.6286 0.796143 118.653 0.796143C165.678 0.796143 203.774 38.8968 203.774 85.9506Z" fill="#FFC92E" stroke="black" stroke-width="1.5912"/>
<path d="M178.277 85.9511C178.277 118.879 151.59 145.639 118.554 145.639C85.617 145.639 58.8308 118.879 58.8308 85.9511C58.8308 53.0234 85.5178 26.2634 118.554 26.2634C151.59 26.2634 178.277 53.0234 178.277 85.9511Z" fill="white" stroke="black" stroke-width="1.5912"/>
<path d="M75.9934 57.2006C84.5253 43.0745 101.986 34.1213 118.653 34.1213C135.419 34.1213 152.88 43.0745 161.412 57.2006H75.9934Z" fill="black"/>
<path d="M75.9934 114.899C84.5253 129.025 101.986 137.978 118.653 137.978C135.419 137.978 152.88 129.025 161.412 114.899H75.9934Z" fill="black"/>
<path d="M60.1199 54.018L59.8222 53.819L60.1199 53.4211C60.4175 53.0232 60.5167 52.6253 60.3183 52.2274C60.2191 52.0284 59.9215 51.73 59.3262 51.332L52.8777 46.9549C52.2824 46.557 51.7864 46.3581 51.588 46.3581C51.2904 46.3581 50.8935 46.6565 50.6951 46.9549L50.3975 47.3529L50.0999 47.1539L52.8777 43.0753C53.8698 41.5831 54.8618 40.4888 55.6555 39.9914C56.5484 39.3945 57.5405 39.1956 58.6317 39.1956C59.723 39.295 60.8143 39.5935 61.8064 40.2898C63.1953 41.1851 64.0882 42.4784 64.3858 43.8711C64.7826 45.5622 64.2866 47.3529 62.9969 49.3425L60.1199 54.018ZM61.3104 50.6357C61.9056 50.1383 62.3024 49.6409 62.6001 49.1435C63.3937 47.9497 63.5921 46.756 63.2945 45.4628C62.9969 44.1695 62.2032 43.0753 60.8143 42.1799C59.4254 41.2846 58.1357 40.8867 56.846 41.0857C55.5563 41.2846 54.465 41.981 53.6713 43.1747C53.3737 43.5727 53.0761 44.1695 52.8777 44.8659L61.3104 50.6357Z" fill="black" stroke="#2F2F2F" stroke-width="0.1064"/>
<path d="M62.8978 31.7341L66.1716 35.1164L68.0566 33.2263C68.5526 32.7289 68.8502 32.331 68.8502 32.0326C68.8502 31.6346 68.6518 31.1372 68.255 30.6399L68.4534 30.4409L71.3304 33.4253L71.132 33.6242C70.636 33.2263 70.3384 33.0274 70.1399 33.0274C69.9415 32.9279 69.6439 32.9279 69.4455 33.0274C69.1479 33.1268 68.8502 33.3258 68.5526 33.7237L66.6677 35.6138L69.4455 38.3992C69.8423 38.7972 70.0407 38.9961 70.1399 38.9961C70.2391 38.9961 70.3384 39.0956 70.5368 38.9961C70.636 38.9961 70.8344 38.7972 71.132 38.5982L72.6201 37.106C73.1162 36.6086 73.4138 36.2107 73.6122 35.9123C73.8106 35.6138 73.8106 35.3154 73.9098 34.9175C73.9098 34.4201 73.8106 33.7237 73.6122 32.9279L73.9098 32.6294L75.2988 35.5143L68.6518 42.08L68.4534 41.881L68.751 41.5826C68.9494 41.3836 69.1479 41.1847 69.1479 40.8862C69.2471 40.6873 69.2471 40.4883 69.1479 40.2894C69.0487 40.0904 68.8502 39.792 68.4534 39.394L62.997 33.8232C62.5009 33.3258 62.1041 33.0274 61.8065 33.0274C61.5089 33.0274 61.112 33.2263 60.8144 33.5248L60.5168 33.8232L60.3184 33.6242L66.9653 27.0586L68.8502 28.8492L68.5526 29.0482C68.0566 28.6503 67.6597 28.4513 67.3621 28.4513C67.0645 28.3518 66.7669 28.4513 66.4692 28.5508C66.2708 28.6503 65.874 28.9487 65.4772 29.3466L62.8978 31.7341Z" fill="black" stroke="#2F2F2F" stroke-width="0.1064"/>
<path d="M77.283 19L79.5648 22.3823L79.2672 22.5813C78.7711 21.9844 78.1759 21.5865 77.6798 21.288C77.1838 21.0891 76.6878 20.9896 76.0925 20.9896C75.4973 21.0891 75.0012 21.1885 74.5052 21.5865C74.0091 21.9844 73.7115 22.3823 73.5131 22.8797C73.4139 23.3771 73.4139 23.8745 73.7115 24.2724C73.9099 24.5708 74.2076 24.7698 74.6044 24.8693C75.1996 25.0682 76.1917 24.9688 77.7791 24.8693C79.0688 24.7698 79.9616 24.6703 80.4577 24.6703C80.9537 24.6703 81.4497 24.8693 81.8466 25.0682C82.2434 25.2672 82.6402 25.6651 82.9379 25.9636C83.4339 26.7594 83.6323 27.5552 83.3347 28.55C83.1363 29.5448 82.541 30.2412 81.6482 30.9375C81.3505 31.1365 81.0529 31.3354 80.7553 31.4349C80.5569 31.5344 80.16 31.6339 79.664 31.8328C79.0688 32.0318 78.6719 32.1313 78.5727 32.2308C78.4735 32.3302 78.3743 32.4297 78.3743 32.5292C78.3743 32.6287 78.3743 32.8276 78.4735 33.1261L78.3743 33.4245L76.0925 30.0422L76.3901 29.8433C76.9854 30.4401 77.5806 30.838 77.9775 31.1365C78.4735 31.3354 78.9695 31.4349 79.5648 31.3354C80.16 31.236 80.7553 31.037 81.2513 30.6391C81.8466 30.2412 82.2434 29.7438 82.3426 29.1469C82.4418 28.55 82.4418 28.0526 82.1442 27.6547C81.9458 27.4557 81.7474 27.2568 81.4497 27.0578C81.1521 26.8589 80.7553 26.8589 80.3585 26.7594C80.0608 26.7594 79.3664 26.7594 78.1759 26.8589C76.9854 26.9584 76.0925 26.9584 75.5965 26.9584C75.0012 26.9584 74.6044 26.7594 74.1083 26.5604C73.7115 26.3615 73.3147 26.063 73.0171 25.6651C72.521 24.9688 72.4218 24.1729 72.6202 23.2776C72.8186 22.3823 73.3147 21.6859 74.2076 21.0891C74.7036 20.6912 75.3981 20.4922 76.1917 20.2932C76.5886 20.1938 76.787 20.1938 76.8862 20.0943C76.9854 19.9948 77.0846 19.8953 77.0846 19.7958C77.0846 19.6964 77.0846 19.4974 76.9854 19.199L77.283 19Z" fill="black" stroke="#2F2F2F" stroke-width="0.1064"/>
<path d="M91.4701 24.9698L91.5693 25.2682L86.9065 27.5562L86.8073 27.2578L87.2042 27.0588C87.7002 26.8599 87.8986 26.5614 87.9978 26.1635C87.9978 25.9646 87.8986 25.4672 87.601 24.8703L84.2279 17.9067C83.9303 17.4093 83.7319 17.0114 83.6327 16.9119C83.5335 16.8124 83.3351 16.713 83.1366 16.713C82.839 16.713 82.5414 16.713 82.343 16.9119L81.9461 17.1109L81.8469 16.8124L86.5097 14.5244L86.6089 14.8229L86.1129 14.9223C85.716 15.1213 85.4184 15.4197 85.3192 15.8176C85.22 16.0166 85.4184 16.514 85.716 17.1109L89.0891 24.0744C89.3868 24.5718 89.5852 24.9698 89.6844 25.0692C89.7836 25.1687 89.982 25.2682 90.1804 25.2682C90.478 25.2682 90.7757 25.2682 90.9741 25.0692L91.4701 24.9698Z" fill="black" stroke="#2F2F2F" stroke-width="0.1064"/>
<path d="M100.002 9.35107L101.39 12.8329L101.093 12.9323C100.498 12.1365 99.9023 11.5396 99.3071 11.2412C98.4142 10.8433 97.4221 10.7438 96.3309 11.0422C94.8427 11.5396 93.9499 12.4349 93.4538 13.8276C93.1562 15.0214 93.1562 16.2152 93.553 17.6079C93.8507 18.7021 94.4459 19.5975 95.1404 20.3933C95.8348 21.1891 96.6285 21.6865 97.4221 21.8855C98.2158 22.0844 99.0095 22.0844 99.7039 21.8855C100.101 21.786 100.498 21.587 100.894 21.3881C101.291 21.1891 101.589 20.8907 101.886 20.5922L100.894 17.3094C100.696 16.7126 100.597 16.4141 100.398 16.2152C100.299 16.0162 100.101 16.0162 99.9023 15.9167C99.7039 15.9167 99.3071 15.9167 98.9103 16.1157L98.8111 15.8172L103.275 14.4245L103.375 14.723L103.176 14.8224C102.779 14.9219 102.482 15.2204 102.383 15.5188C102.283 15.7178 102.383 16.2152 102.581 16.812L103.672 20.2938C103.077 20.8907 102.581 21.2886 101.986 21.6865C101.39 22.0844 100.696 22.3829 99.9023 22.5818C97.6206 23.2782 95.7356 23.0792 94.1483 21.985C92.9578 21.1891 92.1641 20.0949 91.6681 18.7021C91.3705 17.7073 91.2713 16.6131 91.4697 15.6183C91.6681 14.325 92.2633 13.2308 93.057 12.3355C93.7515 11.5396 94.6443 11.0422 95.8348 10.6443C96.2317 10.5448 96.6285 10.4453 97.0253 10.3459C97.4222 10.3459 97.9182 10.3459 98.6126 10.3459C99.0095 10.3459 99.2079 10.3459 99.3071 10.3459C99.4063 10.3459 99.5055 10.2464 99.5055 10.1469C99.5055 10.0474 99.5055 9.84847 99.5055 9.55003L100.002 9.35107Z" fill="black" stroke="#2F2F2F" stroke-width="0.1064"/>
<path d="M105.557 8.35648L108.831 8.05804L116.966 16.4143L116.47 9.55024C116.371 8.85388 116.272 8.35648 116.073 8.15752C115.875 7.95856 115.478 7.85908 114.982 7.85908H114.585V7.56065L118.752 7.26221V7.56065H118.355C117.859 7.56065 117.462 7.7596 117.264 8.05804C117.164 8.257 117.164 8.65492 117.164 9.35128L117.958 19.3987H117.661L108.93 10.4456L109.525 17.807C109.625 18.5034 109.724 19.0008 109.922 19.1998C110.121 19.3987 110.518 19.4982 111.014 19.4982H111.41V19.7966L107.244 20.0951V19.7966H107.64C108.137 19.7966 108.533 19.5977 108.732 19.2992C108.831 19.1003 108.831 18.7024 108.831 18.006L108.137 9.64972C107.74 9.2518 107.442 9.05284 107.244 8.95336C107.045 8.85388 106.748 8.7544 106.45 8.65492C106.252 8.65492 106.053 8.65492 105.656 8.65492L105.557 8.35648Z" fill="black" stroke="#2F2F2F" stroke-width="0.1064"/>
<path d="M125.498 12.7334C125.796 12.7334 125.994 12.8329 126.093 13.0318C126.292 13.2308 126.292 13.4298 126.292 13.7282C126.292 14.0266 126.192 14.2256 125.994 14.3251C125.796 14.524 125.597 14.524 125.3 14.524C125.002 14.524 124.803 14.4246 124.704 14.2256C124.506 14.0266 124.506 13.8277 124.506 13.5292C124.506 13.2308 124.605 13.0318 124.803 12.9324C125.002 12.8329 125.2 12.7334 125.498 12.7334Z" fill="black" stroke="#2F2F2F"/>
<path d="M139.387 16.3149C140.18 16.7129 140.677 17.1108 140.974 17.6082C141.371 18.3045 141.47 19.0009 141.272 19.7967C141.073 20.3936 140.776 20.891 140.28 21.2889C139.784 21.6868 139.188 21.9853 138.494 22.0848C137.799 22.1842 136.807 21.9853 135.418 21.6868L129.863 20.1946L129.962 19.8962L130.359 19.9957C130.855 20.0952 131.252 20.0952 131.549 19.7967C131.748 19.5978 131.946 19.1999 132.045 18.603L134.03 11.142C134.228 10.4457 134.228 9.94826 134.129 9.7493C133.93 9.45087 133.633 9.25191 133.236 9.15243L132.839 8.95347L132.938 8.65503L137.998 9.94826C138.99 10.1472 139.684 10.4457 140.18 10.7441C140.974 11.142 141.569 11.7389 141.867 12.3358C142.165 12.9326 142.264 13.629 142.065 14.3254C141.867 14.9222 141.569 15.4196 141.073 15.7181C140.677 16.116 140.081 16.3149 139.387 16.3149ZM133.434 20.2941C134.03 20.5926 134.724 20.891 135.319 21.09C136.411 21.3884 137.204 21.2889 137.899 20.9905C138.593 20.692 138.99 20.1946 139.188 19.4983C139.288 19.0009 139.288 18.603 139.188 18.1056C139.089 17.6082 138.692 17.2103 138.196 16.8123C137.7 16.4144 137.006 16.116 136.212 15.917C135.815 15.8176 135.518 15.7181 135.319 15.7181C135.022 15.6186 134.823 15.6186 134.724 15.6186L133.434 20.2941ZM134.922 14.7233C135.121 14.8228 135.319 14.9222 135.617 15.0217C135.915 15.1212 136.212 15.2207 136.51 15.3202C137.303 15.5191 137.998 15.6186 138.494 15.5191C138.99 15.4196 139.387 15.2207 139.684 14.9222C139.982 14.6238 140.18 14.2259 140.379 13.828C140.577 13.1316 140.379 12.5347 139.982 11.8384C139.585 11.2415 138.792 10.7441 137.7 10.4457C137.105 10.2467 136.609 10.2467 136.113 10.2467L134.922 14.7233Z" fill="black" stroke="#2F2F2F" stroke-width="0.1064"/>
<path d="M155.36 17.0102L155.459 16.7117L159.328 18.6018L159.229 18.9003L158.832 18.7013C158.435 18.5024 157.939 18.5024 157.542 18.7013C157.344 18.8008 157.146 19.1987 156.848 19.7956L154.665 24.1727C154.169 25.267 153.574 26.0628 153.078 26.5602C152.582 27.0576 151.888 27.356 150.995 27.4555C150.102 27.555 149.209 27.356 148.118 26.7592C146.927 26.1623 146.133 25.4659 145.737 24.7696C145.34 24.0732 145.141 23.2774 145.241 22.4815C145.34 21.8847 145.637 20.9894 146.332 19.6961L148.415 15.518C148.713 14.8216 148.911 14.4237 148.812 14.1253C148.713 13.8268 148.515 13.5284 148.118 13.3294L147.721 13.1305L147.82 12.832L152.483 15.2195L152.384 15.518L151.987 15.319C151.491 15.1201 151.193 15.1201 150.796 15.2195C150.598 15.319 150.3 15.7169 150.003 16.3138L147.721 20.9894C147.522 21.3873 147.324 21.8847 147.126 22.4815C146.927 23.0784 146.828 23.5758 146.927 23.9737C147.026 24.3717 147.126 24.7696 147.423 25.1675C147.721 25.5654 148.118 25.8638 148.713 26.1623C149.407 26.5602 150.102 26.6597 150.896 26.6597C151.59 26.6597 152.185 26.4607 152.582 26.0628C152.979 25.6649 153.574 24.9685 154.07 23.7748L156.253 19.3977C156.55 18.7013 156.749 18.3034 156.65 18.005C156.55 17.7065 156.352 17.4081 155.856 17.2091L155.36 17.0102Z" fill="black" stroke="#2F2F2F" stroke-width="0.1064"/>
<path d="M160.32 33.7239L160.122 34.0223L155.955 30.9384L156.153 30.64L156.451 30.9384C156.848 31.2369 157.245 31.3364 157.542 31.2369C157.741 31.1374 158.138 30.839 158.535 30.2421L163.098 23.9749C163.495 23.4775 163.693 23.179 163.693 22.9801C163.693 22.7811 163.693 22.6816 163.594 22.4827C163.495 22.1842 163.296 21.9853 163.098 21.7863L162.8 21.4879L162.999 21.1895L167.166 24.2733L166.967 24.5718L166.57 24.2733C166.174 23.9749 165.777 23.8754 165.479 23.9749C165.281 24.0744 164.884 24.3728 164.487 24.9697L159.923 31.2369C159.527 31.7343 159.328 32.0327 159.328 32.2317C159.328 32.4306 159.328 32.5301 159.427 32.7291C159.527 33.0275 159.725 33.2265 159.923 33.4254L160.32 33.7239Z" fill="black" stroke="#2F2F2F" stroke-width="0.1064"/>
<path d="M171.729 40.4881L171.927 40.7865L168.852 42.3782L162.205 35.7131L162.403 35.5141L162.701 35.8126C163.097 36.2105 163.395 36.31 163.792 36.2105C163.99 36.2105 164.387 35.912 164.883 35.4146L170.34 29.9433C170.836 29.4459 171.133 29.048 171.133 28.7495C171.133 28.3516 171.034 28.0532 170.637 27.7547L170.34 27.4563L170.538 27.2573L174.407 31.137L174.209 31.336C173.713 30.8386 173.415 30.6396 173.118 30.5401C172.82 30.4407 172.622 30.4407 172.423 30.4407C172.225 30.5401 171.828 30.7391 171.332 31.336L165.975 36.6084C165.677 36.9068 165.379 37.2053 165.379 37.4042C165.379 37.5037 165.379 37.7027 165.379 37.8021C165.478 37.9016 165.776 38.2995 166.272 38.8964L166.867 39.4933C167.562 40.1896 168.058 40.5876 168.356 40.7865C168.752 40.9855 169.149 40.9855 169.546 40.9855C170.34 40.886 170.935 40.7865 171.729 40.4881Z" fill="black" stroke="#2F2F2F" stroke-width="0.1064"/>
<path d="M170.936 44.5677L171.233 44.3688L171.432 44.7667C171.729 45.1646 172.027 45.4631 172.424 45.4631C172.622 45.4631 173.019 45.2641 173.614 44.9657L180.063 40.7875C180.658 40.3896 181.055 40.0912 181.055 39.7927C181.154 39.4943 181.055 39.0964 180.856 38.6984L180.658 38.3005L180.956 38.1016L183.634 42.2797C184.626 43.7719 185.222 45.0651 185.42 46.0599C185.618 47.0547 185.42 48.0495 184.924 49.0443C184.428 50.0391 183.634 50.835 182.642 51.5313C181.253 52.4266 179.765 52.7251 178.277 52.5261C176.59 52.2277 175.102 51.1334 173.813 49.1438L170.936 44.5677ZM173.614 46.9552C173.912 47.6516 174.209 48.2485 174.408 48.6464C175.201 49.8402 176.194 50.5365 177.483 50.7355C178.773 50.9344 180.162 50.636 181.452 49.7407C182.841 48.8454 183.634 47.7511 184.031 46.4578C184.329 45.1646 184.13 43.9709 183.337 42.6776C183.039 42.1802 182.642 41.7823 182.146 41.2849L173.614 46.9552Z" fill="black" stroke="#2F2F2F" stroke-width="0.1064"/>
<path d="M58.2349 136.287L56.2507 133.601L58.3341 126.936C58.1356 126.737 58.0364 126.438 57.838 126.339C57.838 126.239 57.7388 126.239 57.7388 126.14C57.6396 126.04 57.6396 125.941 57.5404 125.941L54.7626 127.93C54.1673 128.328 53.8697 128.726 53.7705 128.925C53.6713 129.224 53.7705 129.621 54.0681 130.019L54.3657 130.417L54.0681 130.616L50.9927 126.339L51.2903 126.14L51.5879 126.538C51.8855 126.936 52.2824 127.134 52.6792 127.134C52.8776 127.134 53.2745 126.936 53.8697 126.538L60.1198 121.962C60.7151 121.564 61.0127 121.166 61.1119 120.967C61.2111 120.668 61.1119 120.27 60.8143 119.873L60.5166 119.475L60.8143 119.276L63.4929 122.956C64.2865 124.051 64.7826 124.846 64.981 125.443C65.1794 126.04 65.2786 126.737 65.0802 127.333C64.981 127.93 64.5842 128.527 63.9889 128.925C63.3937 129.323 62.6992 129.522 62.0048 129.423C61.3103 129.323 60.5166 128.925 59.723 128.229L58.4333 132.307C58.1356 133.203 58.0364 133.999 58.0364 134.496C58.0364 134.993 58.2349 135.491 58.6317 136.088L58.2349 136.287ZM58.0364 125.543C58.1356 125.642 58.1356 125.742 58.2349 125.742C58.2349 125.841 58.3341 125.841 58.3341 125.941C59.0285 126.936 59.723 127.433 60.5166 127.632C61.3103 127.831 61.9055 127.731 62.6 127.234C63.1953 126.836 63.5921 126.239 63.6913 125.543C63.7905 124.846 63.5921 124.25 63.096 123.553C62.8976 123.255 62.6 122.956 62.104 122.459L58.0364 125.543Z" fill="black" stroke="black" stroke-width="0.1064"/>
<path d="M72.0248 134.197L68.8502 137.679L70.8343 139.469C71.3304 139.967 71.8264 140.166 72.124 140.166C72.5209 140.166 73.0169 139.967 73.5129 139.469L73.8106 139.668L71.0327 142.752L70.7351 142.553C71.0327 142.056 71.2312 141.757 71.3304 141.558C71.4296 141.359 71.3304 141.061 71.2312 140.862C71.1319 140.564 70.8343 140.265 70.5367 139.967L68.5525 138.176L65.9731 141.16C65.5763 141.558 65.3779 141.857 65.3779 141.956C65.3779 142.056 65.3779 142.155 65.3779 142.354C65.3779 142.553 65.5763 142.653 65.8739 142.852L67.4612 144.244C67.9573 144.742 68.3541 145.04 68.6517 145.14C68.9494 145.239 69.3462 145.339 69.743 145.339C70.2391 145.339 70.9335 145.14 71.7272 144.841L72.0248 145.04L69.247 146.532L62.104 140.166L62.3024 139.967L62.6 140.265C62.7985 140.464 63.0961 140.564 63.3937 140.663C63.5921 140.763 63.7905 140.663 63.989 140.564C64.1874 140.464 64.485 140.166 64.8818 139.768L70.0407 133.998C70.5367 133.401 70.8343 133.003 70.8343 132.804C70.8343 132.506 70.6359 132.108 70.2391 131.809L69.9414 131.511L70.1399 131.312L77.2829 137.679L75.5963 139.768L75.2987 139.569C75.5963 138.972 75.7947 138.574 75.8939 138.276C75.8939 137.977 75.8939 137.679 75.6955 137.38C75.5963 137.181 75.2987 136.783 74.8026 136.385L72.0248 134.197Z" fill="black" stroke="black" stroke-width="0.1064"/>
<path d="M80.3581 154.094L80.9533 142.952L77.1834 150.015C76.7866 150.711 76.6874 151.109 76.7866 151.308C76.8858 151.607 77.0842 151.905 77.5803 152.104L77.9771 152.303L77.7787 152.601L74.0088 150.512L74.2072 150.214L74.604 150.413C75.1001 150.711 75.4969 150.711 75.7945 150.512C75.993 150.413 76.2906 150.015 76.5882 149.518L80.3581 142.653C80.6557 142.156 80.7549 141.858 80.7549 141.559C80.7549 141.36 80.6557 141.161 80.5565 140.962C80.4573 140.763 80.1597 140.564 79.6636 140.266L79.8621 139.968L82.9375 141.659L82.1438 152.203L90.4773 146.036L93.5528 147.727L93.3543 148.025L92.9575 147.826C92.4615 147.528 92.0646 147.528 91.767 147.727C91.5686 147.826 91.271 148.125 90.9733 148.722L87.2034 155.586C86.8066 156.282 86.7074 156.68 86.8066 156.879C86.9058 157.177 87.1042 157.476 87.6003 157.675L87.9971 157.874L87.7987 158.172L83.1359 155.685L83.3343 155.387L83.7312 155.586C84.2272 155.884 84.624 155.884 84.9217 155.685C85.1201 155.586 85.4177 155.287 85.7153 154.69L89.4852 147.627L80.4573 154.193L80.3581 154.094Z" fill="black" stroke="black" stroke-width="0.1064"/>
<path d="M101.887 149.617C103.474 150.015 104.664 150.91 105.458 152.402C106.351 153.795 106.549 155.387 106.053 157.177C105.557 158.968 104.664 160.261 103.176 161.157C101.688 162.052 100.2 162.251 98.5136 161.853C96.8271 161.455 95.6366 160.46 94.8429 159.067C94.0492 157.675 93.8508 155.984 94.3469 154.193C94.8429 152.303 95.835 151.01 97.4223 150.214C98.9104 149.418 100.299 149.219 101.887 149.617ZM101.589 150.214C100.498 149.915 99.6049 150.114 98.712 150.711C97.6207 151.507 96.9263 152.8 96.4302 154.591C95.9342 156.481 95.9342 158.073 96.5294 159.266C96.9263 160.162 97.7199 160.858 98.8112 161.057C99.9025 161.355 100.994 161.157 101.887 160.46C102.879 159.764 103.573 158.57 104.069 156.68C104.565 154.69 104.565 153.099 103.97 151.905C103.474 151.209 102.68 150.512 101.589 150.214Z" fill="black" stroke="black" stroke-width="0.1064"/>
<path d="M109.823 163.842V163.544H110.32C110.816 163.544 111.212 163.444 111.411 163.046C111.51 162.848 111.609 162.45 111.609 161.753L111.907 153.994C111.907 153.198 111.907 152.8 111.708 152.601C111.51 152.303 111.113 152.203 110.617 152.203H110.121V151.905L115.181 152.104C117.066 152.203 118.455 152.402 119.347 152.9C120.34 153.297 121.034 153.994 121.629 154.989C122.225 155.983 122.423 157.078 122.423 158.271C122.324 159.963 121.828 161.355 120.736 162.35C119.546 163.544 117.661 164.141 115.28 164.041L109.823 163.842ZM113.296 163.046C114.089 163.245 114.685 163.345 115.28 163.345C116.669 163.345 117.859 162.947 118.851 162.052C119.844 161.156 120.34 159.863 120.34 158.172C120.439 156.481 119.943 155.188 119.05 154.193C118.157 153.198 116.966 152.701 115.478 152.601C114.883 152.601 114.288 152.601 113.593 152.8L113.296 163.046Z" fill="black" stroke="black" stroke-width="0.1064"/>
<path d="M128.97 152.103L129.764 156.779L132.443 156.281C133.137 156.182 133.633 155.983 133.832 155.684C134.129 155.386 134.229 154.889 134.129 154.192L134.427 154.093L135.121 158.171L134.824 158.271C134.625 157.674 134.526 157.376 134.427 157.177C134.328 156.978 134.03 156.878 133.832 156.779C133.534 156.679 133.137 156.679 132.641 156.779L129.963 157.276L130.657 161.156C130.756 161.653 130.855 161.952 130.855 162.051C130.955 162.151 131.054 162.25 131.153 162.25C131.252 162.25 131.55 162.25 131.848 162.25L133.931 161.852C134.625 161.753 135.121 161.554 135.419 161.454C135.717 161.355 136.014 161.056 136.213 160.758C136.51 160.36 136.808 159.763 137.106 158.967L137.502 158.868L136.907 162.151L127.482 163.742L127.383 163.444L127.78 163.344C128.078 163.245 128.375 163.145 128.574 163.046C128.772 162.946 128.871 162.747 128.871 162.548C128.871 162.35 128.871 161.952 128.772 161.355L127.482 153.695C127.383 152.899 127.185 152.501 126.986 152.302C126.689 152.103 126.391 152.103 125.796 152.103L125.399 152.203L125.3 151.904L134.725 150.312L135.32 152.899L134.923 152.998C134.725 152.402 134.427 152.004 134.328 151.805C134.129 151.606 133.832 151.506 133.534 151.407C133.236 151.407 132.84 151.407 132.244 151.506L128.97 152.103Z" fill="black" stroke="black" stroke-width="0.1064"/>
<path d="M151.392 153.795L151.689 153.695L151.888 157.078L142.959 160.56L142.86 160.261L143.257 160.062C143.753 159.863 144.05 159.565 144.15 159.167C144.249 158.968 144.15 158.47 143.852 157.874L141.074 150.711C140.776 150.015 140.578 149.617 140.28 149.517C139.983 149.318 139.586 149.418 139.189 149.517L138.792 149.716L138.693 149.418L143.951 147.428L144.05 147.727C143.455 147.926 143.058 148.224 142.86 148.423C142.661 148.622 142.562 148.821 142.562 149.02C142.562 149.219 142.661 149.716 142.959 150.313L145.638 157.376C145.836 157.874 145.935 158.172 146.134 158.271C146.233 158.371 146.431 158.371 146.531 158.371C146.729 158.371 147.126 158.271 147.919 157.973L148.713 157.675C149.606 157.376 150.201 156.978 150.499 156.779C150.796 156.481 151.094 156.182 151.193 155.685C151.193 155.188 151.293 154.591 151.392 153.795Z" fill="black" stroke="black" stroke-width="0.1064"/>
<path d="M161.808 151.308L162.007 151.606L157.443 154.292L157.245 153.994L157.642 153.795C158.038 153.496 158.336 153.198 158.336 152.899C158.336 152.7 158.237 152.203 157.84 151.606L153.872 144.941C153.574 144.444 153.276 144.046 153.177 143.946C153.078 143.847 152.88 143.847 152.681 143.847C152.384 143.847 152.086 143.946 151.887 144.046L151.491 144.245L151.292 143.946L155.856 141.26L156.054 141.559L155.657 141.758C155.261 142.056 154.963 142.355 154.963 142.653C154.963 142.852 155.062 143.349 155.459 143.946L159.427 150.611C159.725 151.109 160.023 151.507 160.122 151.606C160.221 151.706 160.419 151.706 160.618 151.706C160.915 151.706 161.213 151.606 161.411 151.507L161.808 151.308Z" fill="black" stroke="black" stroke-width="0.1064"/>
<path d="M158.633 139.767L161.113 137.579L172.721 139.27L168.157 134.097C167.661 133.5 167.264 133.301 167.066 133.202C166.768 133.202 166.372 133.301 165.975 133.6L165.677 133.898L165.479 133.699L168.753 130.814L168.951 131.013L168.653 131.312C168.256 131.61 168.058 132.008 168.157 132.406C168.157 132.605 168.455 133.003 168.852 133.5L175.499 141.061L175.3 141.26L162.8 139.469L167.661 145.04C168.157 145.637 168.554 145.836 168.753 145.935C169.05 145.935 169.447 145.836 169.844 145.537L170.141 145.239L170.34 145.438L167.066 148.323L166.868 148.124L167.165 147.825C167.562 147.427 167.76 147.129 167.661 146.731C167.661 146.532 167.364 146.134 166.967 145.637L161.411 139.369C160.915 139.27 160.518 139.27 160.221 139.27C160.022 139.27 159.725 139.369 159.328 139.568C159.129 139.668 158.931 139.767 158.633 140.066V139.767Z" fill="black" stroke="black" stroke-width="0.1064"/>
<path d="M176.392 119.872L179.665 121.862L179.467 122.16C178.475 121.862 177.681 121.762 176.987 121.961C175.995 122.16 175.201 122.757 174.507 123.653C173.614 124.946 173.415 126.239 173.911 127.632C174.308 128.825 175.102 129.82 176.292 130.616C177.185 131.312 178.177 131.71 179.269 131.909C180.261 132.108 181.253 132.009 181.947 131.611C182.741 131.312 183.336 130.815 183.832 130.119C184.13 129.721 184.328 129.323 184.427 128.925C184.626 128.527 184.725 128.129 184.725 127.632L181.947 125.642C181.451 125.244 181.154 125.145 180.955 125.045C180.757 125.045 180.558 125.045 180.36 125.145C180.161 125.244 179.963 125.543 179.665 125.941L179.368 125.742L182.146 121.862L182.443 122.061L182.344 122.26C182.046 122.658 182.046 122.956 182.146 123.354C182.245 123.553 182.542 123.851 183.038 124.249L186.015 126.338C185.916 127.134 185.717 127.831 185.419 128.527C185.122 129.223 184.824 129.82 184.328 130.517C182.939 132.506 181.253 133.501 179.368 133.7C177.88 133.799 176.59 133.402 175.399 132.606C174.507 132.009 173.911 131.213 173.415 130.218C172.82 129.024 172.622 127.831 172.721 126.637C172.82 125.642 173.217 124.548 174.011 123.553C174.308 123.155 174.507 122.857 174.804 122.658C175.102 122.359 175.499 122.061 176.094 121.663C176.392 121.464 176.59 121.265 176.689 121.166C176.788 121.066 176.788 120.967 176.689 120.867C176.689 120.768 176.491 120.569 176.292 120.37L176.392 119.872Z" fill="black" stroke="black" stroke-width="0.1064"/>
<path d="M216.67 64.563H21.3298C10.02 64.563 0.793701 74.2125 0.793701 86.0506C0.793701 97.8886 10.02 107.538 21.3298 107.538H216.571C227.881 107.538 237.107 97.8886 237.107 86.0506C237.206 74.113 227.98 64.563 216.67 64.563Z" fill="#FFC92E" stroke="black" stroke-width="1.5912"/>
<path d="M10.7142 73.217H17.5596L33.1352 91.9192V77.5941C33.1352 76.0025 32.9368 75.1072 32.6392 74.7092C32.1431 74.2118 31.4487 73.9134 30.4566 73.9134H29.5637V73.217H38.4924V73.9134H37.5996C36.5083 73.9134 35.7146 74.2118 35.3178 74.9082C35.0202 75.3061 34.921 76.2014 34.921 77.5941V98.6838H34.2265L17.4603 78.5889V94.0083C17.4603 95.5999 17.6588 96.4953 17.9564 96.8932C18.4524 97.3906 19.1469 97.689 20.139 97.689H21.0318V98.3854H12.1031V97.689H12.996C14.0873 97.689 14.8809 97.3906 15.2778 96.6942C15.5754 96.2963 15.6746 95.401 15.6746 94.0083V76.5993C14.9801 75.704 14.3849 75.2066 13.9881 74.9082C13.5912 74.6098 12.996 74.4108 12.3015 74.2118C11.9047 74.1124 11.4087 74.0129 10.615 74.0129V73.217H10.7142Z" fill="black"/>
<path d="M51.3895 72.7192C54.6634 72.7192 57.5404 73.913 60.0206 76.4C62.4016 78.887 63.6913 81.9708 63.6913 85.6516C63.6913 89.4318 62.5008 92.6151 60.0206 95.1021C57.5404 97.5891 54.5642 98.8824 51.0919 98.8824C47.6196 98.8824 44.6434 97.6886 42.2624 95.2016C39.8814 92.7146 38.6909 89.5313 38.6909 85.6516C38.6909 81.6724 40.0798 78.4891 42.8577 76.0021C45.1394 73.8135 48.0165 72.7192 51.3895 72.7192ZM50.9927 74.0125C48.7109 74.0125 46.826 74.8083 45.5363 76.4995C43.8497 78.5885 42.9569 81.5729 42.9569 85.5521C42.9569 89.6308 43.8497 92.8141 45.6355 95.0027C47.0244 96.6938 48.8101 97.4896 51.0919 97.4896C53.4729 97.4896 55.4571 96.5943 57.0444 94.7042C58.6317 92.9136 59.4254 90.0287 59.4254 86.0495C59.4254 81.7719 58.5325 78.5885 56.846 76.4995C55.3579 74.8083 53.4729 74.0125 50.9927 74.0125Z" fill="black"/>
<path d="M88.7915 98.2859H81.9462L73.3151 86.5473C72.7198 86.5473 72.2238 86.5473 71.827 86.5473H71.3309C71.1325 86.5473 70.9341 86.5473 70.7357 86.5473V93.8093C70.7357 95.401 70.9341 96.3958 71.2317 96.7937C71.7278 97.2911 72.4222 97.5895 73.3151 97.5895H74.3072V98.2859H63.3943V97.5895H64.3864C65.4777 97.5895 66.1721 97.2911 66.6681 96.5947C66.9658 96.1968 67.065 95.3015 67.065 93.9088V77.6936C67.065 76.1019 66.8666 75.1072 66.5689 74.7092C66.0729 74.2118 65.3784 73.9134 64.3864 73.9134H63.3943V73.217H72.7198C75.3985 73.217 77.3826 73.416 78.6723 73.8139C79.962 74.2118 81.0533 74.9082 81.9462 76.0025C82.8391 76.9973 83.3351 78.2905 83.3351 79.6832C83.3351 81.1754 82.8391 82.5681 81.7478 83.6624C80.7557 84.7567 79.1684 85.5525 76.9858 86.0499L82.2438 93.2124C83.4343 94.9036 84.5256 95.9979 85.3193 96.4952C86.2121 96.9926 87.3034 97.3906 88.6923 97.49V98.2859H88.7915ZM70.7357 85.453C70.9341 85.453 71.1325 85.453 71.3309 85.453H71.7278C74.1088 85.453 75.9937 84.9556 77.1842 83.9608C78.3747 82.966 79.0692 81.5733 79.0692 79.9817C79.0692 78.39 78.5731 77.1962 77.581 76.2014C76.589 75.2066 75.2993 74.7092 73.6127 74.7092C72.9183 74.7092 71.9262 74.8087 70.6365 75.1072V85.453H70.7357Z" fill="black"/>
<path d="M103.375 98.2859L93.5531 77.1962V93.9088C93.5531 95.5005 93.7515 96.3958 94.0492 96.7937C94.5452 97.2911 95.2397 97.5895 96.2317 97.5895H97.1246V98.2859H88.1959V97.5895H89.0888C90.18 97.5895 90.9737 97.2911 91.3705 96.5947C91.6682 96.1968 91.7674 95.3015 91.7674 93.9088V77.5941C91.7674 76.4999 91.6682 75.704 91.3705 75.2066C91.1721 74.8087 90.8745 74.5103 90.3785 74.3113C89.8824 74.0129 89.188 73.9134 88.0967 73.9134V73.217H95.3389L104.565 92.715L113.593 73.217H120.835V73.9134H119.942C118.851 73.9134 118.057 74.2118 117.661 74.9082C117.363 75.3061 117.264 76.2014 117.264 77.5941V93.9088C117.264 95.5005 117.462 96.3958 117.76 96.7937C118.256 97.2911 118.95 97.5895 119.942 97.5895H120.835V98.2859H109.922V97.5895H110.815C111.907 97.5895 112.7 97.2911 113.097 96.5947C113.395 96.1968 113.494 95.3015 113.494 93.9088V77.1962L103.672 98.2859H103.375Z" fill="black"/>
<path d="M138.594 89.9301H128.673L126.987 93.9092C126.59 94.904 126.391 95.6004 126.391 96.0978C126.391 96.4957 126.59 96.7941 126.987 97.0926C127.383 97.391 128.177 97.59 129.368 97.6895V98.3858H121.332V97.6895C122.423 97.4905 123.118 97.2915 123.415 96.9931C124.01 96.3962 124.804 95.2025 125.499 93.4118L134.526 72.8196H135.221L144.05 93.6108C144.745 95.302 145.439 96.3962 146.035 96.8936C146.63 97.391 147.424 97.6895 148.515 97.6895V98.3858H138.495V97.6895C139.487 97.59 140.181 97.4905 140.578 97.1921C140.975 96.8936 141.074 96.5952 141.074 96.1973C141.074 95.6999 140.777 94.8046 140.281 93.6108L138.594 89.9301ZM137.999 88.5373L133.733 78.3904L129.368 88.5373H137.999Z" fill="black"/>
<path d="M147.423 73.217H154.367L169.943 91.9192V77.5941C169.943 76.0025 169.745 75.1072 169.447 74.7092C168.951 74.2118 168.256 73.9134 167.264 73.9134H166.371V73.217H175.3V73.9134H174.407C173.316 73.9134 172.522 74.2118 172.126 74.9082C171.828 75.3061 171.729 76.2014 171.729 77.5941V98.6838H171.034L154.07 78.5889V94.0083C154.07 95.5999 154.268 96.4953 154.566 96.8932C155.062 97.3906 155.756 97.689 156.748 97.689H157.641V98.3854H148.712V97.689H149.605C150.697 97.689 151.49 97.3906 151.887 96.6942C152.185 96.2963 152.284 95.401 152.284 94.0083V76.5993C151.59 75.704 150.994 75.2066 150.597 74.9082C150.201 74.6098 149.705 74.4108 148.911 74.2118C148.514 74.1124 148.018 74.0129 147.224 74.0129V73.217H147.423Z" fill="black"/>
<path d="M175.598 98.2859V97.5895H176.59C177.681 97.5895 178.376 97.2911 178.872 96.5947C179.169 96.1968 179.269 95.3015 179.269 93.8093V77.6936C179.269 76.1019 179.07 75.1072 178.773 74.7092C178.277 74.2118 177.582 73.9134 176.59 73.9134H175.598V73.217H186.015C189.785 73.217 192.761 73.615 194.745 74.5103C196.729 75.4056 198.317 76.7983 199.507 78.7879C200.698 80.7775 201.293 83.0655 201.293 85.652C201.293 89.1338 200.201 92.0187 198.019 94.4062C195.638 96.9926 191.868 98.2859 187.007 98.2859H175.598ZM182.84 96.4952C184.427 96.7937 185.717 96.9926 186.808 96.9926C189.685 96.9926 192.166 95.9979 194.051 94.0083C195.936 92.0187 196.928 89.3327 196.928 85.8509C196.928 82.3692 195.936 79.6832 194.051 77.6936C192.166 75.704 189.685 74.7092 186.709 74.7092C185.618 74.7092 184.328 74.9082 182.84 75.2066V96.4952Z" fill="black"/>
<path d="M217.364 73.217H226.293V73.9134H225.797C225.499 73.9134 225.003 74.0129 224.408 74.3113C223.813 74.6098 223.217 75.0077 222.721 75.5051C222.225 76.0025 221.531 76.8978 220.836 78.0915L214.686 87.5421V93.9088C214.686 95.5005 214.884 96.3958 215.182 96.7937C215.678 97.2911 216.372 97.5895 217.463 97.5895H218.257V98.2859H207.344V97.5895H208.237C209.328 97.5895 210.122 97.2911 210.519 96.5947C210.816 96.1968 210.916 95.3015 210.916 93.9088V88.0395L203.971 77.4947C203.177 76.3009 202.582 75.5051 202.285 75.2066C201.987 74.9082 201.392 74.5103 200.499 74.1124C200.201 74.0129 199.904 73.9134 199.407 73.9134V73.217H210.32V73.9134H209.725C209.13 73.9134 208.634 74.0129 208.138 74.3113C207.642 74.6098 207.344 75.0077 207.344 75.5051C207.344 75.903 207.741 76.7983 208.535 77.8926L213.793 85.9504L218.852 78.191C219.646 76.9973 219.944 76.2014 219.944 75.6046C219.944 75.2066 219.844 74.9082 219.646 74.7092C219.448 74.4108 219.249 74.2118 218.852 74.1124C218.555 73.9134 217.959 73.9134 217.364 73.9134V73.217Z" fill="black"/>
</g>
<defs>
<clipPath id="clip0_245:14">
<rect width="238" height="172" fill="white"/>
</clipPath>
</defs>
</svg>
